<?xml version="1.0" encoding="utf-8"?>
<!-- Generator: Adobe Illustrator 16.0.0, SVG Export Plug-In . SVG Version: 6.00 Build 0)  -->
<svg version="1.2" baseProfile="tiny" id="Layer_1" xmlns="http://www.w3.org/2000/svg" xmlns:xlink="http://www.w3.org/1999/xlink"
	 x="0px" y="0px" width="16px" height="16px" viewBox="4 4 16 16" xml:space="preserve">
<path fill="#554D56" d="M7.25,19.5c0,0.2753906-0.2236328,0.5-0.5,0.5s-0.5-0.2246094-0.5-0.5v-8.0634766
	c-0.7060547-0.1816406-1.2578125-0.7329102-1.4394531-1.4389648C4.5361328,8.9277344,5.1796875,7.8374023,6.25,7.5625V4.4995117
	c0-0.2763672,0.2236328-0.5,0.5-0.5s0.5,0.2236328,0.5,0.5V7.5625c0.7060547,0.1816406,1.2568359,0.7329102,1.4384766,1.4389648
	C8.9638672,10.0712891,8.3193359,11.1616211,7.25,11.4365234V19.5z M7.6162109,10.0004883
	C7.8916016,9.5219727,7.7285156,8.9106445,7.25,8.6342773C6.7714844,8.3583984,6.1601563,8.5219727,5.8837891,9.0004883
	S5.7714844,10.090332,6.25,10.3666992c0.3085938,0.1796875,0.6904297,0.1796875,1,0
	C7.4013672,10.2788086,7.5283203,10.1523438,7.6162109,10.0004883z M11.75,4.4995117c0-0.2763672,0.2236328-0.5,0.5-0.5
	s0.5,0.2236328,0.5,0.5V13.5625c0.7060547,0.1816406,1.2578125,0.7324219,1.4394531,1.4394531
	C14.4638672,16.0722656,13.8203125,17.1621094,12.75,17.4375V19.5c0,0.2753906-0.2236328,0.5-0.5,0.5s-0.5-0.2246094-0.5-0.5
	v-2.0625c-0.7060547-0.1816406-1.2578125-0.734375-1.4394531-1.4394531C10.0361328,14.9277344,10.6796875,13.8378906,11.75,13.5625
	V4.4995117z M11.3837891,14.9980469c-0.2763672,0.4785156-0.1123047,1.0898438,0.3662109,1.3671875
	c0.4785156,0.2753906,1.0898438,0.1113281,1.3662109-0.3671875S13.2285156,14.9082031,12.75,14.6328125
	c-0.3085938-0.1796875-0.690918-0.1796875-1,0C11.5981445,14.7207031,11.4716797,14.8476563,11.3837891,14.9980469z M17.75,19.5
	c0,0.2753906-0.2236328,0.5-0.5,0.5s-0.5-0.2246094-0.5-0.5V9.4365234
	c-0.7060547-0.1816406-1.2578125-0.7329102-1.4394531-1.4389648C15.0361328,6.9277344,15.6796875,5.8374023,16.75,5.5625V4.4995117
	c0-0.2763672,0.2236328-0.5,0.5-0.5s0.5,0.2236328,0.5,0.5V5.5625c0.7060547,0.1816406,1.2578125,0.7329102,1.4394531,1.4389648
	C19.4638672,8.0712891,18.8203125,9.1616211,17.75,9.4365234V19.5z M18.1162109,8.0004883
	C18.3925781,7.5219727,18.2285156,6.9106445,17.75,6.6342773c-0.4785156-0.2758789-1.0898438-0.1123047-1.3662109,0.3662109
	S16.2714844,8.090332,16.75,8.3666992c0.3085938,0.1796875,0.6914063,0.1796875,1,0
	C17.9023438,8.2788086,18.0283203,8.1523438,18.1162109,8.0004883z"/>
</svg>
